<?xml version="1.0" encoding="utf-8"?>
<!-- Generator: Adobe Illustrator 20.1.0, SVG Export Plug-In . SVG Version: 6.00 Build 0)  -->
<svg version="1.1" id="Layer_1" xmlns="http://www.w3.org/2000/svg" xmlns:xlink="http://www.w3.org/1999/xlink" x="0px" y="0px"
	 viewBox="0 0 400 383" style="enable-background:new 0 0 400 383;" xml:space="preserve">
<style type="text/css">
	.st0{opacity:0.4;fill:#FFFFFF;enable-background:new    ;}
	.st1{fill:#FFFFFF;}
	.st2{fill:#F89F1E;}
	.st3{fill:none;}
	.st4{fill:none;stroke:#101010;stroke-width:2;stroke-linecap:round;stroke-linejoin:round;stroke-miterlimit:10;}
	.st5{fill:#5C5C5C;}
	.st6{fill:none;stroke:#F89F1E;stroke-width:2;stroke-linecap:round;stroke-linejoin:round;stroke-miterlimit:10;}
	.st7{fill:#5B5B5B;}
	.st8{fill:#101010;}
	.st9{fill:#F89F1F;}
</style>
<circle class="st0" cx="68" cy="25" r="22"/>
<path class="st1" d="M68,16l-1.6,1.6l6.3,6.3H59v2.3h13.7l-6.3,6.3L68,34l9-9L68,16z"/>
<circle class="st0" cx="24" cy="25" r="22"/>
<path class="st1" d="M24,34l1.6-1.6l-6.3-6.3H33v-2.3H19.3l6.3-6.3L24,16l-9,9L24,34z"/>
<circle class="st1" cx="24" cy="69" r="22"/>
<path class="st2" d="M24,78l1.6-1.6l-6.3-6.3H33v-2.3H19.3l6.3-6.3L24,60l-9,9L24,78z"/>
<circle class="st1" cx="68" cy="69" r="22"/>
<path class="st2" d="M68,60l-1.6,1.6l6.3,6.3H59v2.3h13.7l-6.3,6.3L68,78l9-9L68,60z"/>
<rect x="18" y="102" class="st3" width="36" height="36"/>
<line class="st4" x1="26" y1="120" x2="46" y2="120"/>
<line class="st4" x1="26" y1="127" x2="46" y2="127"/>
<line class="st4" x1="26" y1="113" x2="46" y2="113"/>
<path class="st5" d="M96,113v14H82v-14H96 M96,111H82c-1.1,0-2,0.9-2,2v14c0,1.1,0.9,2,2,2h14c1.1,0,2-0.9,2-2v-14
	C98,111.9,97.1,111,96,111z"/>
<path class="st3" d="M77,108h24v24H77V108z"/>
<path class="st3" d="M77,132h24v24H77V132z"/>
<path class="st2" d="M96,135H82c-1.1,0-2,0.9-2,2v14c0,1.1,0.9,2,2,2h14c1.1,0,2-0.9,2-2v-14C98,135.9,97.1,135,96,135z M87,149
	l-5-5l1.4-1.4l3.6,3.6l7.6-7.6L96,140L87,149z"/>
<rect x="15" y="162" class="st3" width="36" height="36"/>
<line class="st6" x1="26" y1="187" x2="40" y2="173"/>
<line class="st6" x1="40" y1="187" x2="26" y2="173"/>
<path class="st7" d="M33,221c7.2,0,13,5.8,13,13s-5.8,13-13,13s-13-5.8-13-13S25.8,221,33,221 M33,219c-8.3,0-15,6.7-15,15
	s6.7,15,15,15s15-6.7,15-15S41.3,219,33,219z"/>
<path class="st7" d="M35.3,228.6h1.5V226c-0.3,0-1.2-0.1-2.2-0.1c-2.2,0-3.7,1.4-3.7,3.9v2.2h-2.5v2.9h2.5v8h3v-8h2.5l0.4-2.9h-2.9
	v-2C33.9,229.2,34.1,228.6,35.3,228.6z"/>
<circle class="st2" cx="33" cy="269" r="15"/>
<path class="st1" d="M35.3,263.6h1.5V261c-0.3,0-1.2-0.1-2.2-0.1c-2.2,0-3.7,1.4-3.7,3.9v2.2h-2.5v2.9h2.5v8h3v-8h2.5l0.4-2.9h-2.9
	v-2C33.9,264.2,34.1,263.6,35.3,263.6z"/>
<rect x="112" y="114" class="st3" width="36" height="36"/>
<line class="st4" x1="130" y1="122" x2="130" y2="131"/>
<line class="st4" x1="123" y1="130.1" x2="123" y2="140"/>
<line class="st4" x1="137" y1="124" x2="137" y2="138"/>
<circle class="st4" cx="137" cy="140" r="2"/>
<circle class="st4" cx="123" cy="128" r="2"/>
<circle class="st4" cx="130" cy="133" r="2"/>
<path class="st7" d="M69,221c7.2,0,13,5.8,13,13s-5.8,13-13,13s-13-5.8-13-13S61.8,221,69,221 M69,219c-8.3,0-15,6.7-15,15
	s6.7,15,15,15s15-6.7,15-15S77.3,219,69,219z"/>
<path class="st7" d="M64.1,233.5l3.3,1.6c0.6,0.3,0.5,1.2-0.1,1.4l-3.5,0.9c-0.4,0.1-0.9-0.2-0.9-0.6c-0.1-1,0-1.9,0.3-2.8
	C63.2,233.5,63.7,233.3,64.1,233.5z"/>
<path class="st7" d="M65.4,240.2l2.4-2.7c0.5-0.5,1.3-0.2,1.3,0.5l-0.1,3.7c0,0.5-0.4,0.8-0.9,0.7c-0.9-0.2-1.8-0.5-2.6-1.1
	C65.2,241.1,65.1,240.5,65.4,240.2z"/>
<path class="st7" d="M71.2,236.6l3.5,1.1c0.4,0.1,0.6,0.6,0.4,1c-0.4,0.8-1,1.6-1.7,2.2c-0.3,0.3-0.9,0.2-1.1-0.2l-1.9-3.1
	C70,237.1,70.5,236.4,71.2,236.6z"/>
<path class="st7" d="M74.7,234.4l-3.5,1c-0.7,0.2-1.2-0.6-0.8-1.1l2-3c0.3-0.4,0.8-0.4,1.1-0.1c0.7,0.6,1.3,1.4,1.7,2.3
	C75.4,233.8,75.1,234.3,74.7,234.4z"/>
<path class="st7" d="M66.5,225.9c-0.6,0.2-1.2,0.4-1.8,0.7c-0.4,0.2-0.5,0.7-0.3,1l3.4,5.9c0.4,0.7,1.4,0.4,1.4-0.4v-6.7
	c0-0.4-0.4-0.8-0.8-0.7C67.8,225.7,67.2,225.8,66.5,225.9z"/>
<circle class="st2" cx="69" cy="269" r="15"/>
<path class="st1" d="M64.1,268.5l3.3,1.6c0.6,0.3,0.5,1.2-0.1,1.4l-3.5,0.9c-0.4,0.1-0.9-0.2-0.9-0.6c-0.1-1,0-1.9,0.3-2.8
	C63.2,268.5,63.7,268.3,64.1,268.5z"/>
<path class="st1" d="M65.4,275.2l2.4-2.7c0.5-0.5,1.3-0.2,1.3,0.5l-0.1,3.7c0,0.5-0.4,0.8-0.9,0.7c-0.9-0.2-1.8-0.5-2.6-1.1
	C65.2,276.1,65.1,275.5,65.4,275.2z"/>
<path class="st1" d="M71.2,271.6l3.5,1.1c0.4,0.1,0.6,0.6,0.4,1c-0.4,0.8-1,1.6-1.7,2.2c-0.3,0.3-0.9,0.2-1.1-0.2l-1.9-3.1
	C70,272.1,70.5,271.4,71.2,271.6z"/>
<path class="st1" d="M74.7,269.4l-3.5,1c-0.7,0.2-1.2-0.6-0.8-1.1l2-3c0.3-0.4,0.8-0.4,1.1-0.1c0.7,0.6,1.3,1.4,1.7,2.3
	C75.4,268.8,75.1,269.3,74.7,269.4z"/>
<path class="st1" d="M66.5,260.9c-0.6,0.2-1.2,0.4-1.8,0.7c-0.4,0.2-0.5,0.7-0.3,1l3.4,5.9c0.4,0.7,1.4,0.4,1.4-0.4v-6.8
	c0-0.4-0.4-0.8-0.8-0.7C67.8,260.7,67.2,260.8,66.5,260.9z"/>
<path class="st7" d="M102,220c7.2,0,13,5.8,13,13s-5.8,13-13,13s-13-5.8-13-13S94.8,220,102,220 M102,218c-8.3,0-15,6.7-15,15
	s6.7,15,15,15s15-6.7,15-15S110.3,218,102,218z"/>
<path class="st7" d="M106.6,225.5h-9.2c-1.6,0-2.9,1.3-2.9,2.9v9.2c0,1.6,1.3,2.9,2.9,2.9h9.2c1.6,0,2.9-1.3,2.9-2.9v-9.2
	C109.5,226.8,108.2,225.5,106.6,225.5z M107.4,227.2h0.3v2.5h-2.5v-2.5H107.4z M99.9,231.5c0.5-0.7,1.3-1.1,2.1-1.1
	c0.9,0,1.7,0.4,2.1,1.1c0.3,0.4,0.5,1,0.5,1.5c0,1.5-1.2,2.6-2.6,2.6c-1.5,0-2.6-1.2-2.6-2.6C99.4,232.4,99.5,231.9,99.9,231.5z
	 M107.7,237.3c0,0.8-0.6,1.4-1.4,1.4h-8.6c-0.8,0-1.4-0.6-1.4-1.4v-5.8h1.9c-0.2,0.5-0.3,1-0.3,1.5c0,2.3,1.8,4.1,4.1,4.1
	s4.1-1.8,4.1-4.1c0-0.5-0.1-1.1-0.3-1.5h1.9C107.7,231.5,107.7,237.3,107.7,237.3z"/>
<circle class="st2" cx="102" cy="268" r="14"/>
<path class="st2" d="M102,255c7.2,0,13,5.8,13,13s-5.8,13-13,13s-13-5.8-13-13S94.8,255,102,255 M102,253c-8.3,0-15,6.7-15,15
	s6.7,15,15,15s15-6.7,15-15S110.3,253,102,253z"/>
<path class="st1" d="M106.6,260.5h-9.2c-1.6,0-2.9,1.3-2.9,2.9v9.2c0,1.6,1.3,2.9,2.9,2.9h9.2c1.6,0,2.9-1.3,2.9-2.9v-9.2
	C109.5,261.8,108.2,260.5,106.6,260.5z M107.4,262.2h0.3v2.5h-2.5v-2.5H107.4z M99.9,266.5c0.5-0.7,1.3-1.1,2.1-1.1
	c0.9,0,1.7,0.4,2.1,1.1c0.3,0.4,0.5,1,0.5,1.5c0,1.5-1.2,2.6-2.6,2.6c-1.5,0-2.6-1.2-2.6-2.6C99.4,267.4,99.5,266.9,99.9,266.5z
	 M107.7,272.3c0,0.8-0.6,1.4-1.4,1.4h-8.6c-0.8,0-1.4-0.6-1.4-1.4v-5.8h1.9c-0.2,0.5-0.3,1-0.3,1.5c0,2.3,1.8,4.1,4.1,4.1
	s4.1-1.8,4.1-4.1c0-0.5-0.1-1.1-0.3-1.5h1.9C107.7,266.5,107.7,272.3,107.7,272.3z"/>
<polygon class="st8" points="223,308.7 223,297 183,297 183,306.7 183,308.7 183,321.1 183,332.9 183,345.3 183,347.3 183,357 
	223,357 223,345.3 194.5,345.3 194.5,332.9 214,332.9 214,321.1 194.5,321.1 194.5,308.7 "/>
<path class="st8" d="M68.6,341.4c-3.1,2.4-6.9,3.9-11.1,3.9c-9.9,0-18-8.2-18-18.3s8.1-18.3,18-18.3c4.2,0,8,1.4,11.1,3.9
	c1.4-3.7,3.4-7.1,5.9-10.2c-4.8-3.4-10.6-5.4-16.9-5.4C41.2,297,28,310.4,28,327s13.2,30,29.6,30c6.3,0,12.1-2,16.9-5.4
	C72.1,348.5,70.1,345.1,68.6,341.4z"/>
<path class="st8" d="M163.9,331.8c6.3-2.3,10.8-8.5,10.8-15.7v-2.5c0-9.2-7.3-16.7-16.4-16.7H127c3.8,3.3,6.9,7.3,9.2,11.8h22
	c2.7,0,4.8,2.2,4.8,4.9v2.5c0,2.7-2.2,4.9-4.8,4.9h-18.1c0.3,1.9,0.4,3.7,0.4,5.7c0,2.1-0.2,4.1-0.5,6.1h11.2l13,24.2h13.1
	L163.9,331.8L163.9,331.8z"/>
<path class="st9" d="M125.1,330.6c-1.7,10.5-10.8,18.6-21.8,18.6s-20.1-8.1-21.8-18.6h-7.9c1.7,14.9,14.3,26.4,29.6,26.4
	s27.9-11.5,29.7-26.4H125.1z"/>
<path class="st9" d="M81.4,323.4c1.7-10.5,10.9-18.6,21.8-18.6c11,0,20.1,8.1,21.8,18.6h7.9c-1.7-14.9-14.3-26.4-29.7-26.4
	c-15.3,0-27.9,11.5-29.7,26.4H81.4z"/>
<path class="st8" d="M100.6,308.5c3.4,14.8-10.7,18.2-7.3,29.7c2.7,9.3,15.9,8.9,19.4,2.1c1.5-2.8,2.5-8.1-2.7-15.2
	c0.4,3.6-1.1,8.1-4.3,6C101.9,328.8,111.9,316.6,100.6,308.5z"/>
<polygon class="st8" points="260,236.8 260,229 233.3,229 233.3,235.4 233.3,236.8 233.3,245.1 233.3,252.9 233.3,261.2 
	233.3,262.6 233.3,269 260,269 260,261.2 241,261.2 241,252.9 254,252.9 254,245.1 241,245.1 241,236.8 "/>
<path class="st8" d="M157.1,258.6c-2,1.6-4.6,2.6-7.4,2.6c-6.6,0-12-5.5-12-12.2s5.4-12.2,12-12.2c2.8,0,5.3,1,7.4,2.6
	c1-2.5,2.3-4.8,3.9-6.8c-3.2-2.3-7.1-3.6-11.3-3.6c-10.9,0-19.7,9-19.7,20c0,11,8.8,20,19.7,20c4.2,0,8.1-1.3,11.3-3.6
	C159.4,263.4,158.1,261.1,157.1,258.6z"/>
<path class="st8" d="M220.6,252.2c4.2-1.6,7.2-5.6,7.2-10.4v-1.7c0-6.1-4.9-11.1-11-11.1H196c2.5,2.2,4.6,4.8,6.1,7.8h14.7
	c1.8,0,3.2,1.5,3.2,3.3v1.7c0,1.8-1.4,3.3-3.2,3.3h-12c0.2,1.2,0.3,2.5,0.3,3.8c0,1.4-0.1,2.7-0.3,4.1h7.5l8.5,16h8.7L220.6,252.2z"
	/>
<path class="st2" d="M194.7,251.4c-1.1,7-7.2,12.4-14.5,12.4s-13.4-5.4-14.5-12.4h-5.3c1.1,9.9,9.6,17.6,19.8,17.6
	s18.6-7.7,19.8-17.6H194.7z"/>
<path class="st2" d="M165.6,246.6c1.1-7,7.2-12.4,14.5-12.4s13.4,5.4,14.5,12.4h5.4c-1.2-9.9-9.6-17.6-19.8-17.6
	s-18.7,7.7-19.8,17.6H165.6z"/>
<path class="st8" d="M178.4,236.6c2.2,9.8-7.1,12.1-4.9,19.8c1.8,6.2,10.6,5.9,12.9,1.4c1-1.9,1.7-5.4-1.8-10.2
	c0.3,2.4-0.8,5.4-2.9,4C179.3,250.2,186,242.1,178.4,236.6z"/>
<path class="st3" d="M77,167h24v24H77V167z"/>
<path class="st7" d="M89,171l-1.4,1.4l5.6,5.6H81v2h12.2l-5.6,5.6L89,187l8-8L89,171z"/>
<g>
	<polygon class="st8" points="230,184.9 230,179 209.9,179 209.9,183.8 209.9,184.9 209.9,191.1 209.9,196.9 209.9,203.1 
		209.9,204.2 209.9,209 230,209 230,203.1 215.7,203.1 215.7,196.9 225.5,196.9 225.5,191.1 215.7,191.1 215.7,184.9 	"/>
	<path class="st8" d="M152.4,201.2c-1.5,1.2-3.5,1.9-5.6,1.9c-5,0-9-4.1-9-9.1s4.1-9.1,9-9.1c2.1,0,4,0.7,5.6,1.9
		c0.7-1.9,1.7-3.6,3-5.1c-2.4-1.7-5.4-2.7-8.5-2.7c-8.2,0-14.9,6.7-14.9,15s6.7,15,14.9,15c3.2,0,6.1-1,8.5-2.7
		C154.2,204.8,153.2,203.1,152.4,201.2z"/>
	<path class="st8" d="M200.3,196.4c3.2-1.2,5.4-4.2,5.4-7.8v-1.3c0-4.6-3.7-8.3-8.3-8.3h-15.6c1.9,1.6,3.5,3.6,4.6,5.9h11.1
		c1.3,0,2.4,1.1,2.4,2.5v1.2c0,1.4-1.1,2.5-2.4,2.5h-9.1c0.1,0.9,0.2,1.9,0.2,2.8c0,1-0.1,2.1-0.2,3.1h5.6l6.4,12h6.6L200.3,196.4z"
		/>
	<g>
		<path class="st2" d="M180.8,195.8c-0.9,5.3-5.5,9.3-11,9.3s-10.1-4-11-9.3h-4c1,7.4,7.3,13.2,15,13.2s14-5.8,14.9-13.2H180.8z"/>
		<path class="st2" d="M158.8,192.2c0.9-5.3,5.5-9.3,11-9.3s10.1,4,11,9.3h4c-0.9-7.4-7.3-13.2-15-13.2s-14,5.8-14.9,13.2H158.8z"/>
	</g>
	<path class="st8" d="M168.5,184.7c1.7,7.4-5.4,9.1-3.7,14.9c1.3,4.6,8,4.5,9.8,1.1c0.7-1.4,1.3-4.1-1.4-7.6c0.2,1.8-0.6,4-2.2,3
		C169.1,194.9,174.2,188.8,168.5,184.7z"/>
</g>
</svg>
