<?xml version="1.0" encoding="utf-8"?>
<!-- Generator: Adobe Illustrator 20.1.0, SVG Export Plug-In . SVG Version: 6.00 Build 0)  -->
<svg version="1.1" id="Layer_1" xmlns="http://www.w3.org/2000/svg" xmlns:xlink="http://www.w3.org/1999/xlink" x="0px" y="0px"
	 viewBox="0 0 351 101" style="enable-background:new 0 0 351 101;" xml:space="preserve">
<style type="text/css">
	.st0{fill:#4E342E;}
	.st1{fill:#4E342E;stroke:#4E342E;stroke-width:0.2268;stroke-miterlimit:10;}
</style>
<g>
	<path class="st0" d="M3,36.2c7-5.3,13.9-10,21-14c7-4,13.9-7.4,20.7-10.2c6.8-2.8,13.5-5.1,20-6.8c6.5-1.7,12.7-3,18.6-3.8
		c5.9-0.8,11.5-1.3,16.7-1.3c5.2,0,10,0.3,14.3,0.9c4.3,0.6,8,1.5,11.2,2.6c3.2,1.1,5.7,2.4,7.6,3.9c0.9,0.7,1.2,1.5,1.2,2.4
		c-0.1,0.9-0.5,2-1.2,3.1c-0.7,1.1-1.7,2.4-2.9,3.7c-1.2,1.3-2.6,2.6-4.1,4c-1.5,1.4-3,2.8-4.6,4.2c-1.6,1.4-3.2,2.8-4.6,4.2
		c-1.5,1.4-3,2.7-4.5,4.1c-1.5,1.3-2.9,2.7-4.4,4s-2.9,2.7-4.4,4.1c-1.5,1.4-3,2.8-4.5,4.4c2.7-1.8,5.5-3.7,8.4-5.8
		c2.9-2.1,5.8-4.1,8.7-6.3c2.9-2.1,5.8-4.3,8.7-6.4c2.9-2.1,5.7-4.2,8.4-6.1c2.7-2,5.3-3.8,7.9-5.5c2.5-1.7,4.9-3.3,7-4.6
		c2.2-1.3,4.1-2.4,5.9-3.2c1.8-0.8,3.2-1.3,4.5-1.5c0.2,0,0.5,0,0.8,0.1c0.3,0.1,0.6,0.2,0.9,0.3c0.3,0.2,0.5,0.4,0.7,0.7
		c0.2,0.3,0.3,0.7,0.3,1.2c0,0.7-0.4,1.7-1.1,2.9c-0.7,1.2-1.5,2.6-2.6,4c-1.1,1.5-2.3,3-3.6,4.7c-1.4,1.7-2.8,3.3-4.2,5
		c-1.4,1.6-2.9,3.2-4.3,4.8c-1.4,1.5-2.7,2.9-3.8,4.1c-1.1,1.2-2.1,2.3-2.9,3.1c-0.8,0.8-1.3,1.4-1.5,1.6c0.2-0.2,0.8-0.6,1.8-1.3
		c0.9-0.7,2.1-1.6,3.5-2.6c1.4-1.1,3.1-2.3,4.9-3.6c1.8-1.3,3.8-2.8,5.8-4.2c2-1.5,4.2-3,6.4-4.6c2.2-1.6,4.3-3.1,6.5-4.6
		c2.1-1.5,4.2-2.9,6.2-4.2c2-1.3,3.8-2.5,5.4-3.5c1.6-1,3.1-1.9,4.3-2.5c1.2-0.7,2.1-1,2.7-1.2c0.4-0.1,0.8-0.1,1.2-0.1
		c0.4,0.1,0.7,0.2,1,0.3c0.3,0.2,0.5,0.4,0.6,0.8c0.1,0.3,0.2,0.7,0,1.2c-0.1,0.5-0.5,1.2-1,2.1s-1.3,1.9-2.3,3.1
		c-0.9,1.2-2,2.4-3.1,3.8c-1.2,1.4-2.4,2.8-3.6,4.3c-1.3,1.5-2.5,3-3.8,4.5c-1.3,1.5-2.5,3-3.6,4.5c-1.1,1.5-2.2,2.8-3.1,4.1
		c-0.9,1.3-1.7,2.5-2.2,3.6c-0.6,1.1-0.9,2-1,2.7c-0.1,0.8,0.1,1.3,0.5,1.7c0.5,0.4,1.6,0.5,3,0.4c1.5-0.1,3.2-0.4,5.3-0.9
		c2.1-0.5,4.4-1.1,6.9-2c2.5-0.8,5.1-1.7,7.7-2.7c2.6-1,5.3-2,7.9-3.1c2.6-1.1,5.1-2.2,7.4-3.3c2.3-1.1,4.3-2.1,6.1-3.1
		c1.8-1,3.2-1.9,4.2-2.7l0.1,0.2c-0.8,0.7-1.9,1.4-3.2,2.3c-1.3,0.8-2.8,1.7-4.5,2.7c-1.7,0.9-3.5,1.9-5.5,2.9c-2,1-4,1.9-6.2,2.9
		c-2.1,0.9-4.3,1.9-6.4,2.7c-2.2,0.9-4.3,1.7-6.4,2.4c-2.1,0.7-4,1.3-5.9,1.9c-1.9,0.5-3.6,0.9-5.1,1.2c-1.5,0.3-2.8,0.4-4,0.3
		c-1.1,0-1.9-0.3-2.5-0.7c-0.6-0.5-0.9-1.2-0.9-2.1c0-0.9,0.3-2,0.8-3.1c0.5-1.2,1.2-2.5,2-3.9c0.9-1.4,1.9-2.9,3-4.4
		c1.1-1.5,2.3-3,3.6-4.6c1.3-1.6,2.5-3.1,3.7-4.6c1.2-1.5,2.4-2.9,3.6-4.3c1.1-1.4,2.1-2.6,3-3.8c0.9-1.1,1.6-2.1,2.1-3
		c0.5-0.8,0.8-1.5,0.8-1.9c0-0.6-1-0.3-3.1,0.9c-2.1,1.2-5.3,3.3-9.6,6.3c-4.3,3-9.8,6.9-16.4,11.7c-6.6,4.8-14.4,10.4-23.4,17
		c-0.7,0.5-1.3,0.8-1.8,0.8c-0.5,0-0.9-0.1-1.1-0.3c-0.2-0.2-0.3-0.6-0.2-1c0.1-0.4,0.4-0.9,0.9-1.4c5.5-5.7,10.2-10.7,13.9-14.9
		c3.8-4.3,6.8-7.9,9-10.7c2.3-2.9,3.8-5,4.7-6.5c0.9-1.5,1.2-2.2,1.1-2.2c-0.7-0.1-1.8,0.1-3.2,0.7c-1.5,0.6-3.2,1.4-5.2,2.5
		c-2,1.1-4.2,2.4-6.6,4c-2.4,1.5-5,3.2-7.6,4.9c-2.6,1.8-5.3,3.6-8.1,5.5c-2.7,1.9-5.4,3.8-8,5.6c-2.6,1.8-5.1,3.6-7.5,5.3
		c-2.4,1.7-4.5,3.2-6.4,4.6c-1.9,1.4-3.5,2.5-4.9,3.4c-1.3,0.9-2.3,1.5-2.8,1.8c-0.2,0.1-0.3,0.1-0.5,0.1c-0.2,0-0.3-0.1-0.3-0.3
		c-0.1-0.1-0.1-0.3,0-0.5c0.1-0.2,0.2-0.4,0.5-0.7c1-1,2-2,3.2-3c1.1-1.1,2.5-2.3,4-3.8c1.5-1.4,3.3-3.1,5.3-5c2-1.9,4.3-4.1,7-6.8
		c2.9-2.8,5.3-5.2,7.3-7.2c2-2,3.6-3.7,4.8-5.2c1.2-1.4,1.9-2.6,2.2-3.5c0.3-0.9,0.2-1.6-0.3-2.2c-0.7-0.7-1.9-1.5-3.6-2.3
		c-1.7-0.8-3.8-1.5-6.3-2.2c-2.5-0.6-5.4-1.2-8.7-1.6c-3.3-0.4-6.9-0.7-10.9-0.8c-4-0.1-8.3,0.1-12.9,0.5c-4.6,0.4-9.5,1.1-14.7,2.1
		c-5.2,1-10.6,2.4-16.2,4.1C52.8,10.1,47,12.2,41,14.8c-6,2.6-12.2,5.7-18.5,9.2C16.1,27.6,9.6,31.7,3,36.4L3,36.2z"/>
	<path class="st0" d="M201.8,25.7c-0.1-0.4-0.6-0.4-1.5,0.2c-0.8,0.6-2.1,1.5-3.7,2.9c-0.2,0.2-0.3,0.2-0.5,0.1c0,0-0.1-0.1-0.1-0.2
		c0-0.1,0-0.2,0.1-0.3c0.6-0.5,1.3-1.1,1.9-1.6c0.7-0.6,1.3-1,1.9-1.5c0.6-0.4,1.2-0.7,1.7-0.9c0.5-0.2,0.9-0.2,1.3,0
		c0.4,0.2,0.5,0.5,0.5,0.8c0,0.4-0.1,0.8-0.4,1.3c-0.2,0.5-0.6,1-1,1.6c-0.4,0.6-0.8,1.1-1.3,1.7c-0.4,0.6-0.9,1.2-1.3,1.7
		c-0.4,0.6-0.7,1.1-0.9,1.6c-0.2,0.5-0.4,0.9-0.4,1.2c0,0.3,0.2,0.6,0.6,0.8c0.4,0.2,1,0.1,1.6-0.4c0.6-0.5,1.3-1.1,2-1.9
		c0.7-0.8,1.4-1.7,2.2-2.6c0.7-1,1.5-1.9,2.1-2.7s1.3-1.5,1.9-2.1c0.6-0.5,1-0.8,1.4-0.8c0.3,0,0.5,0.2,0.6,0.5
		c0.1,0.3,0.1,0.7,0.1,1.2c0,0.5-0.1,1-0.2,1.6c-0.1,0.6-0.2,1.1-0.3,1.7c-0.1,0.6-0.3,1-0.4,1.5s-0.2,0.7-0.2,0.9
		c0.4-0.3,0.8-0.6,1.2-1s0.8-0.7,1.3-1c0.5-0.4,1-0.8,1.5-1.2c0.5-0.4,1.2-1,1.9-1.5c0.2-0.2,0.3-0.2,0.5-0.1c0,0,0.1,0.1,0.1,0.2
		c0,0.1,0,0.2-0.1,0.3c-0.4,0.3-0.7,0.6-1.2,1c-0.4,0.4-0.9,0.8-1.4,1.3c-0.5,0.5-1.1,1-1.8,1.6c-0.7,0.6-1.4,1.2-2.3,1.9
		c-1.6,4.1-3.4,7.7-5.2,10.9c-1.9,3.2-3.8,6-5.7,8.3c-1.9,2.3-3.8,4.3-5.6,5.9c-1.8,1.6-3.5,2.7-5,3.5c-1.5,0.8-2.8,1.3-3.8,1.4
		c-1.1,0.1-1.8-0.1-2.2-0.7c-0.7-1-0.7-2.4,0.1-4.2c0.8-1.7,2.3-3.8,4.6-6.2c2.2-2.4,5.1-5.2,8.7-8.3s7.7-6.5,12.5-10.3
		c0.1-0.4,0.3-0.8,0.5-1.5c0.2-0.6,0.4-1.3,0.6-2c0.2-0.7,0.4-1.3,0.5-2c0.2-0.6,0.2-1.1,0.3-1.5c-0.3,0.3-0.7,0.8-1.2,1.5
		c-0.5,0.7-1.1,1.4-1.8,2.1c-0.7,0.8-1.4,1.5-2.1,2.3c-0.8,0.8-1.5,1.4-2.2,1.9c-0.7,0.5-1.4,0.9-2.1,1c-0.7,0.2-1.2,0-1.7-0.4
		c-0.5-0.5-0.8-1-0.9-1.7c0-0.6,0.1-1.3,0.4-2c0.3-0.7,0.6-1.4,1.1-2c0.5-0.7,0.9-1.3,1.4-1.9c0.5-0.6,0.8-1.1,1.1-1.5
		C201.7,26.1,201.8,25.8,201.8,25.7L201.8,25.7z M182.9,61.9c0.2,0.2,0.6,0.3,1.1,0.2c0.6,0,1.3-0.2,2.2-0.6c0.9-0.3,1.9-0.8,3-1.5
		c1.1-0.6,2.3-1.5,3.5-2.5c1.2-1,2.5-2.2,3.8-3.6c1.3-1.4,2.6-3,3.8-4.8c1.3-1.8,2.4-3.8,3.6-6.1c1.1-2.2,2.2-4.7,3.1-7.5
		c-2.1,2-4.3,3.9-6.4,5.9c-2.1,1.9-4.2,3.8-6.1,5.6c-1.9,1.8-3.7,3.5-5.3,5.1c-1.6,1.6-3,3-4,4.3c-1.1,1.3-1.8,2.4-2.2,3.3
		C182.5,60.8,182.5,61.5,182.9,61.9L182.9,61.9z"/>
	<path class="st1" d="M64.9,70.8c5-13.4,79.4-22.2,96.5-22.7c64.9-1.6,128.8,3.8,180.8,38.1c2.1,1.4,1.2,1.6,3.5,1.8
		c-0.7,0.1-1.3,0.2-1.9-0.2c-50.4-35.4-132-41.4-196.1-37C136.1,51.6,71.2,63,68.2,71.4c-0.2,0.7-1.1,1.2-2,1
		C65.3,72.3,64.7,71.6,64.9,70.8L64.9,70.8z"/>
	<path class="st0" d="M239.8,62c0,2.2-1.1,4.2-3.3,6c-2.2,1.8-4.5,2.7-7,2.7c-0.9,0-1.7-0.2-2.4-0.6c-0.7-0.4-1-0.8-1-1.3
		c0-1.4,0.4-2,1.3-2c0.5,0,0.8,0.2,0.8,0.6c0,0.1-0.1,0.3-0.2,0.4c-0.1,0.2-0.2,0.3-0.2,0.5c0,0.4,0.2,0.7,0.7,1
		c0.5,0.3,1.1,0.5,1.8,0.5c1.7,0,3.3-0.8,4.8-2.2c1.6-1.5,2.3-3,2.3-4.6c0-1.4-0.7-2.6-2.1-3.6c-1.4-1-3.2-1.5-5.3-1.5
		c-3.5,0-7.2,1.1-11.2,3.2c-4.4,2.3-6.6,4.7-6.6,7.1c0,1.9,1.1,3.2,3.4,4.1L228,77c3,1.1,4.5,2.8,4.5,5c0,3.4-1.8,6.1-5.3,8.2
		c-3.5,2.1-8.1,3.1-13.9,3.1c-4.8,0-8.9-0.8-12.2-2.4c-3.4-1.6-5-3.6-5-5.9c0-1.9,1.3-3.3,3.8-4c1.2-0.4,1.8-0.3,1.8,0
		c0,0-0.5,0.4-1.5,1c-1,0.7-1.5,1.5-1.5,2.6c0,2.4,1.4,4.3,4.3,5.7c2.9,1.4,6.7,2.1,11.5,2.1c4.7,0,8.6-0.9,11.8-2.6
		c3.1-1.7,4.7-3.9,4.7-6.4c0-2-1.4-3.5-4.2-4.6l-12-4.7c-2.4-0.9-3.6-2.5-3.6-4.8c0-3.2,2.1-6,6.4-8.6c4.3-2.6,8.9-3.9,13.9-3.9
		c2.7,0,4.7,0.5,6.2,1.4C239,59.2,239.8,60.4,239.8,62L239.8,62z"/>
	<path class="st0" d="M244.2,92.6c0.5,0,1.1-0.3,1.9-0.9c0.8-0.6,1.6-1.2,2.5-2c0.9-0.8,1.9-1.7,2.8-2.6c1-0.9,1.9-1.8,2.9-2.6
		c0.2-0.2,0.4-0.3,0.5-0.2c0,0,0.1,0.1,0.1,0.2c0,0.1,0,0.2-0.1,0.3c-0.5,0.4-1,0.9-1.7,1.6c-0.7,0.6-1.3,1.3-2.1,2
		c-0.7,0.7-1.5,1.4-2.2,2.1c-0.8,0.7-1.5,1.3-2.2,1.9c-0.7,0.6-1.4,1-2.1,1.3c-0.6,0.3-1.2,0.4-1.6,0.3c-0.5-0.1-0.8-0.3-1-0.6
		c-0.2-0.3-0.2-0.7-0.2-1.2c0-0.4,0.2-1,0.4-1.5c0.2-0.6,0.5-1.1,0.7-1.6c0.3-0.5,0.5-1,0.8-1.5c0.3-0.4,0.5-0.8,0.6-1.1
		c-0.2,0.2-0.6,0.5-1,0.9c-0.4,0.4-0.9,0.8-1.4,1.3c-0.5,0.5-1.1,1-1.6,1.5c-0.6,0.5-1.2,1-1.7,1.5c-0.6,0.5-1.1,0.9-1.6,1.2
		c-0.5,0.4-0.9,0.6-1.3,0.7c-0.7,0.3-1.2,0.3-1.6,0.2c-0.4-0.1-0.7-0.4-0.9-0.7c-0.2-0.3-0.4-0.6-0.5-1c-0.1-0.4-0.1-0.7-0.1-1
		c0-0.7,0.3-1.5,0.9-2.5c0.6-1,1.3-1.9,2.1-2.8c0.8-0.9,1.7-1.8,2.7-2.6c1-0.8,1.9-1.4,2.8-1.8c0.8-0.4,1.6-0.6,2.3-0.7
		c0.7-0.1,1.3-0.1,1.8,0c0.5,0.1,0.9,0.4,1.1,0.8c0.3,0.4,0.4,0.9,0.3,1.6c0.1,0.1,0.2,0.1,0.3,0.2c0.1,0.1,0.1,0.2,0.2,0.4
		c0.1,0.2,0.1,0.4,0.1,0.6c0,0.4-0.1,0.9-0.3,1.5c-0.2,0.6-0.5,1.2-0.8,1.8c-0.3,0.6-0.6,1.2-1,1.8c-0.3,0.6-0.6,1.1-0.8,1.5
		c-0.2,0.4-0.3,0.8-0.2,1.1C243.5,92.5,243.8,92.6,244.2,92.6L244.2,92.6z M233.7,92c0.1,0.2,0.5,0.1,1.1-0.2
		c0.6-0.4,1.3-0.8,2.2-1.5c0.8-0.6,1.7-1.3,2.7-2.2c1-0.8,1.9-1.5,2.7-2.2c0.9-0.7,1.6-1.3,2.2-1.8c0.6-0.5,1-0.7,1.2-0.7
		c-0.1-0.7-0.3-1.2-0.7-1.4c-0.4-0.2-0.9-0.2-1.6,0c-0.6,0.2-1.3,0.5-2.1,1.1c-0.8,0.5-1.5,1.1-2.3,1.8c-0.8,0.7-1.5,1.4-2.2,2.1
		c-0.7,0.8-1.3,1.5-1.9,2.1c-0.5,0.7-0.9,1.3-1.2,1.8C233.6,91.4,233.5,91.8,233.7,92L233.7,92z"/>
	<path class="st0" d="M261,78.8c0.4-0.4,1-1.1,1.8-1.9c0.8-0.8,1.8-1.8,2.8-2.8c1.1-1,2.2-2.1,3.4-3.2c1.2-1.1,2.4-2.2,3.6-3.2
		c1.2-1,2.3-1.9,3.4-2.7c1.1-0.8,2-1.3,2.7-1.7c0.3-0.1,0.5-0.2,0.8-0.2c0.3,0,0.5,0,0.6,0.1c0.2,0.1,0.2,0.3,0.2,0.5
		s-0.1,0.5-0.4,0.9c-0.4,0.6-1,1.3-1.9,2.1c-0.9,0.8-1.9,1.7-3,2.7c-1.1,1-2.3,2-3.6,3c-1.3,1-2.5,2-3.7,2.9
		c-1.2,0.9-2.2,1.7-3.2,2.4c-1,0.7-1.7,1.3-2.2,1.6c-1.6,2-2.9,3.8-3.9,5.3c-0.9,1.5-1.6,2.8-2.1,3.8c-0.4,1.1-0.7,1.9-0.7,2.5
		s0.1,1,0.3,1.2c0.3,0.3,0.6,0.4,1.2,0.3c0.5-0.1,1.1-0.3,1.8-0.6c0.7-0.3,1.4-0.7,2.2-1.2c0.8-0.5,1.5-1,2.3-1.5
		c1.8-1.3,3.8-2.8,5.9-4.6c0.2-0.2,0.4-0.3,0.5-0.2c0,0,0.1,0.1,0.1,0.2c0,0.1,0,0.2-0.1,0.3c-0.3,0.3-0.8,0.7-1.5,1.4
		c-0.7,0.7-1.5,1.4-2.4,2.2c-0.9,0.8-1.9,1.6-2.9,2.4c-1,0.8-2,1.5-3,2c-1,0.6-1.9,0.9-2.8,1c-0.9,0.1-1.6-0.1-2.2-0.6
		c-0.4-0.4-0.7-0.8-0.8-1.4c-0.1-0.6-0.1-1.2,0-1.9c0.1-0.7,0.3-1.4,0.6-2.2c0.3-0.8,0.6-1.5,1-2.2c0.4-0.7,0.8-1.4,1.2-2.1
		c0.4-0.7,0.9-1.3,1.3-1.8c-0.8,0.6-1.6,1.2-2.4,1.8c-0.8,0.7-1.6,1.4-2.6,2.3c-0.2,0.2-0.4,0.3-0.5,0.2c0-0.1-0.1-0.1-0.1-0.2
		c0-0.1,0-0.2,0.1-0.3c0.5-0.4,1.2-1,1.9-1.6c0.7-0.7,1.5-1.3,2.3-2c0.8-0.7,1.5-1.3,2.2-1.9C260.1,79.5,260.6,79.1,261,78.8
		L261,78.8z M279.2,64.1c-0.7,0.1-1.5,0.5-2.6,1.2c-1.1,0.7-2.2,1.5-3.4,2.5c-1.2,1-2.4,2.1-3.6,3.2c-1.2,1.2-2.3,2.3-3.2,3.4
		c2.1-1.6,4-3.1,5.7-4.4c0.7-0.6,1.5-1.2,2.2-1.8c0.7-0.6,1.4-1.2,2.1-1.7c0.6-0.5,1.2-1,1.7-1.4C278.6,64.6,279,64.3,279.2,64.1
		L279.2,64.1z"/>
	<path class="st0" d="M285,84.5c0.2-0.2,0.4-0.3,0.5-0.2c0,0,0.1,0.1,0.1,0.2c0,0.1,0,0.2-0.1,0.3c-1.2,1.2-2.2,2.2-3.3,2.9
		c-1,0.8-2,1.4-2.9,2c-0.9,0.5-1.8,1-2.7,1.3c-0.9,0.3-1.7,0.7-2.6,1c-0.4,0.4-0.9,0.8-1.5,1.2c-0.6,0.3-1.2,0.6-1.9,0.7
		c-0.6,0.1-1.3,0.2-1.8,0.2c-0.6,0-1.1-0.2-1.6-0.5c-0.5-0.3-0.8-0.7-1-1.3c-0.2-0.6-0.3-1.3-0.1-2.1c0.1-0.4,0.2-0.9,0.5-1.5
		c0.3-0.6,0.6-1.2,1-1.8c0.4-0.6,0.9-1.3,1.4-1.9c0.5-0.6,1.1-1.2,1.8-1.8c0.6-0.6,1.3-1,2.1-1.5c0.8-0.4,1.5-0.7,2.4-0.9
		c0.3-0.1,0.7-0.1,1.2-0.2c0.5,0,1,0.1,1.4,0.4c0.7,0.3,1.1,0.7,1.3,1.3c0.2,0.5,0.3,1.1,0.1,1.8c-0.1,0.7-0.3,1.3-0.7,2
		c-0.3,0.7-0.7,1.3-1.1,2c-0.4,0.6-0.8,1.2-1.2,1.6c-0.4,0.5-0.7,0.8-0.9,1c1.3-0.5,2.4-1,3.4-1.6c1-0.6,2-1.2,2.8-1.7
		c0.8-0.6,1.5-1.1,2.1-1.6C284.1,85.3,284.6,84.9,285,84.5L285,84.5z M277.4,82c-0.1-0.1-0.2-0.1-0.5-0.2c-0.3-0.1-0.7,0-1.1,0.2
		c-0.5,0.2-1,0.6-1.7,1.3c-0.7,0.6-1.4,1.6-2.2,2.9c-0.4,0.7-0.7,1.3-0.9,1.9c-0.2,0.6-0.3,1.1-0.4,1.6c0,0.5,0,0.8,0.2,1.1
		c0.1,0.3,0.4,0.4,0.7,0.4c0.3,0,0.7-0.2,1.2-0.6c0.5-0.4,1-0.9,1.5-1.5c0.5-0.6,1.1-1.3,1.6-2c0.5-0.7,0.9-1.4,1.3-2.1
		c0.3-0.7,0.6-1.3,0.7-1.8C277.7,82.6,277.6,82.2,277.4,82L277.4,82z M270.4,92.4c-0.6,0-1-0.3-1.3-0.7c-0.2-0.4-0.3-1-0.3-1.6
		c0.1-0.7,0.2-1.4,0.6-2.2c0.3-0.8,0.7-1.6,1.3-2.4c0.5-0.8,1.1-1.5,1.8-2.2c0.7-0.7,1.4-1.2,2.2-1.6c-1,0.5-2,1.2-2.8,2
		c-0.8,0.8-1.5,1.7-2.1,2.6s-1.1,1.8-1.4,2.6c-0.3,0.8-0.6,1.5-0.6,2.1c-0.1,0.6,0,1,0.2,1.3c0.2,0.3,0.4,0.4,0.7,0.5
		c0.3,0.1,0.6,0.1,0.9,0C269.9,92.5,270.1,92.5,270.4,92.4L270.4,92.4z"/>
	<path class="st0" d="M284.3,86c-0.2,0.2-0.4,0.3-0.5,0.2c-0.1-0.1-0.1-0.1-0.1-0.2c0-0.1,0-0.2,0.1-0.3c0.7-0.6,1.4-1.2,2.1-1.8
		c0.7-0.6,1.3-1.1,1.9-1.6c0.6-0.5,1.3-0.8,1.9-1.1c0.7-0.2,1.3-0.3,2-0.2c0.5,0.1,0.7,0.3,0.7,0.7c0,0.4-0.2,0.9-0.6,1.4
		c-0.3,0.6-0.8,1.2-1.4,1.9c-0.6,0.7-1.2,1.4-1.9,2.1c-0.7,0.7-1.3,1.4-2,2.1c-0.7,0.7-1.3,1.3-1.8,1.8c-0.5,0.5-0.9,0.9-1.2,1.2
		c-0.3,0.3-0.3,0.4-0.2,0.3c1.2-0.7,2.5-1.6,3.8-2.5c1.3-0.9,2.5-1.8,3.7-2.8c1.2-0.9,2.4-1.8,3.5-2.6c1.1-0.8,2.1-1.5,3.1-2.1
		c0.9-0.6,1.8-0.9,2.5-1.1c0.7-0.2,1.3-0.1,1.7,0.2c0.6,0.4,0.8,1,0.8,1.6c-0.1,0.7-0.3,1.4-0.7,2.1c-0.4,0.8-0.9,1.5-1.5,2.3
		c-0.6,0.8-1.2,1.5-1.7,2.2c-0.6,0.7-1,1.3-1.4,1.8c-0.4,0.5-0.5,0.8-0.4,1c0.1,0.2,0.3,0.2,0.7,0c0.4-0.2,0.9-0.5,1.5-0.9
		c0.6-0.4,1.3-0.9,2.1-1.5c0.8-0.6,1.6-1.2,2.4-1.9c0.8-0.6,1.6-1.3,2.4-1.9c0.8-0.7,1.5-1.2,2.1-1.8c0.2-0.2,0.4-0.3,0.5-0.2
		c0.1,0,0.1,0.1,0.1,0.2c0,0.1,0,0.2-0.1,0.3c-0.5,0.4-1.1,0.9-1.8,1.6c-0.7,0.6-1.5,1.3-2.3,2c-0.8,0.7-1.6,1.4-2.5,2.1
		c-0.9,0.7-1.7,1.3-2.5,1.9c-0.8,0.6-1.6,1-2.3,1.3c-0.7,0.3-1.3,0.4-1.8,0.3c-0.6-0.1-0.9-0.4-0.9-0.9c0-0.5,0.2-1.1,0.6-1.7
		c0.4-0.7,0.9-1.4,1.5-2.1c0.6-0.8,1.2-1.5,1.7-2.2c0.5-0.7,1-1.3,1.3-1.8s0.4-0.8,0.2-0.9c-0.3-0.2-0.7-0.2-1.2,0
		c-0.5,0.2-1.2,0.4-1.9,0.8c-0.7,0.4-1.5,0.9-2.4,1.4c-0.9,0.6-1.8,1.1-2.6,1.8c-0.9,0.6-1.8,1.2-2.6,1.9c-0.9,0.6-1.7,1.2-2.4,1.7
		c-0.7,0.5-1.4,1-1.9,1.3c-0.5,0.4-0.9,0.6-1.2,0.7c-0.5,0.2-1,0.2-1.3,0c-0.4-0.2-0.5-0.6-0.5-1.1c0.1-0.5,0.3-1.1,0.8-1.7
		c0.5-0.7,1.1-1.4,1.8-2.1c0.7-0.7,1.4-1.5,2.2-2.2c0.8-0.7,1.5-1.4,2.1-2c0.6-0.6,1.1-1.1,1.5-1.6c0.4-0.4,0.5-0.7,0.3-0.8
		c-0.1-0.1-0.3-0.1-0.5-0.1c-0.2,0.1-0.5,0.2-0.8,0.3c-0.3,0.2-0.6,0.4-1,0.6c-0.3,0.2-0.7,0.5-1,0.7
		C286.1,84.4,285.2,85.1,284.3,86L284.3,86z"/>
</g>
<g>
	<path class="st0" d="M3,36.2c7-5.3,13.9-10,21-14c7-4,13.9-7.4,20.7-10.2c6.8-2.8,13.5-5.1,20-6.8c6.5-1.7,12.7-3,18.6-3.8
		c5.9-0.8,11.5-1.3,16.7-1.3c5.2,0,10,0.3,14.3,0.9c4.3,0.6,8,1.5,11.2,2.6c3.2,1.1,5.7,2.4,7.6,3.9c0.9,0.7,1.2,1.5,1.2,2.4
		c-0.1,0.9-0.5,2-1.2,3.1c-0.7,1.1-1.7,2.4-2.9,3.7c-1.2,1.3-2.6,2.6-4.1,4c-1.5,1.4-3,2.8-4.6,4.2c-1.6,1.4-3.2,2.8-4.6,4.2
		c-1.5,1.4-3,2.7-4.5,4.1c-1.5,1.3-2.9,2.7-4.4,4s-2.9,2.7-4.4,4.1c-1.5,1.4-3,2.8-4.5,4.4c2.7-1.8,5.5-3.7,8.4-5.8
		c2.9-2.1,5.8-4.1,8.7-6.3c2.9-2.1,5.8-4.3,8.7-6.4c2.9-2.1,5.7-4.2,8.4-6.1c2.7-2,5.3-3.8,7.9-5.5c2.5-1.7,4.9-3.3,7-4.6
		c2.2-1.3,4.1-2.4,5.9-3.2c1.8-0.8,3.2-1.3,4.5-1.5c0.2,0,0.5,0,0.8,0.1c0.3,0.1,0.6,0.2,0.9,0.3c0.3,0.2,0.5,0.4,0.7,0.7
		c0.2,0.3,0.3,0.7,0.3,1.2c0,0.7-0.4,1.7-1.1,2.9c-0.7,1.2-1.5,2.6-2.6,4c-1.1,1.5-2.3,3-3.6,4.7c-1.4,1.7-2.8,3.3-4.2,5
		c-1.4,1.6-2.9,3.2-4.3,4.8c-1.4,1.5-2.7,2.9-3.8,4.1c-1.1,1.2-2.1,2.3-2.9,3.1c-0.8,0.8-1.3,1.4-1.5,1.6c0.2-0.2,0.8-0.6,1.8-1.3
		c0.9-0.7,2.1-1.6,3.5-2.6c1.4-1.1,3.1-2.3,4.9-3.6c1.8-1.3,3.8-2.8,5.8-4.2c2-1.5,4.2-3,6.4-4.6c2.2-1.6,4.3-3.1,6.5-4.6
		c2.1-1.5,4.2-2.9,6.2-4.2c2-1.3,3.8-2.5,5.4-3.5c1.6-1,3.1-1.9,4.3-2.5c1.2-0.7,2.1-1,2.7-1.2c0.4-0.1,0.8-0.1,1.2-0.1
		c0.4,0.1,0.7,0.2,1,0.3c0.3,0.2,0.5,0.4,0.6,0.8c0.1,0.3,0.2,0.7,0,1.2c-0.1,0.5-0.5,1.2-1,2.1s-1.3,1.9-2.3,3.1
		c-0.9,1.2-2,2.4-3.1,3.8c-1.2,1.4-2.4,2.8-3.6,4.3c-1.3,1.5-2.5,3-3.8,4.5c-1.3,1.5-2.5,3-3.6,4.5c-1.1,1.5-2.2,2.8-3.1,4.1
		c-0.9,1.3-1.7,2.5-2.2,3.6c-0.6,1.1-0.9,2-1,2.7c-0.1,0.8,0.1,1.3,0.5,1.7c0.5,0.4,1.6,0.5,3,0.4c1.5-0.1,3.2-0.4,5.3-0.9
		c2.1-0.5,4.4-1.1,6.9-2c2.5-0.8,5.1-1.7,7.7-2.7c2.6-1,5.3-2,7.9-3.1c2.6-1.1,5.1-2.2,7.4-3.3c2.3-1.1,4.3-2.1,6.1-3.1
		c1.8-1,3.2-1.9,4.2-2.7l0.1,0.2c-0.8,0.7-1.9,1.4-3.2,2.3c-1.3,0.8-2.8,1.7-4.5,2.7c-1.7,0.9-3.5,1.9-5.5,2.9c-2,1-4,1.9-6.2,2.9
		c-2.1,0.9-4.3,1.9-6.4,2.7c-2.2,0.9-4.3,1.7-6.4,2.4c-2.1,0.7-4,1.3-5.9,1.9c-1.9,0.5-3.6,0.9-5.1,1.2c-1.5,0.3-2.8,0.4-4,0.3
		c-1.1,0-1.9-0.3-2.5-0.7c-0.6-0.5-0.9-1.2-0.9-2.1c0-0.9,0.3-2,0.8-3.1c0.5-1.2,1.2-2.5,2-3.9c0.9-1.4,1.9-2.9,3-4.4
		c1.1-1.5,2.3-3,3.6-4.6c1.3-1.6,2.5-3.1,3.7-4.6c1.2-1.5,2.4-2.9,3.6-4.3c1.1-1.4,2.1-2.6,3-3.8c0.9-1.1,1.6-2.1,2.1-3
		c0.5-0.8,0.8-1.5,0.8-1.9c0-0.6-1-0.3-3.1,0.9c-2.1,1.2-5.3,3.3-9.6,6.3c-4.3,3-9.8,6.9-16.4,11.7c-6.6,4.8-14.4,10.4-23.4,17
		c-0.7,0.5-1.3,0.8-1.8,0.8c-0.5,0-0.9-0.1-1.1-0.3c-0.2-0.2-0.3-0.6-0.2-1c0.1-0.4,0.4-0.9,0.9-1.4c5.5-5.7,10.2-10.7,13.9-14.9
		c3.8-4.3,6.8-7.9,9-10.7c2.3-2.9,3.8-5,4.7-6.5c0.9-1.5,1.2-2.2,1.1-2.2c-0.7-0.1-1.8,0.1-3.2,0.7c-1.5,0.6-3.2,1.4-5.2,2.5
		c-2,1.1-4.2,2.4-6.6,4c-2.4,1.5-5,3.2-7.6,4.9c-2.6,1.8-5.3,3.6-8.1,5.5c-2.7,1.9-5.4,3.8-8,5.6c-2.6,1.8-5.1,3.6-7.5,5.3
		c-2.4,1.7-4.5,3.2-6.4,4.6c-1.9,1.4-3.5,2.5-4.9,3.4c-1.3,0.9-2.3,1.5-2.8,1.8c-0.2,0.1-0.3,0.1-0.5,0.1c-0.2,0-0.3-0.1-0.3-0.3
		c-0.1-0.1-0.1-0.3,0-0.5c0.1-0.2,0.2-0.4,0.5-0.7c1-1,2-2,3.2-3c1.1-1.1,2.5-2.3,4-3.8c1.5-1.4,3.3-3.1,5.3-5c2-1.9,4.3-4.1,7-6.8
		c2.9-2.8,5.3-5.2,7.3-7.2c2-2,3.6-3.7,4.8-5.2c1.2-1.4,1.9-2.6,2.2-3.5c0.3-0.9,0.2-1.6-0.3-2.2c-0.7-0.7-1.9-1.5-3.6-2.3
		c-1.7-0.8-3.8-1.5-6.3-2.2c-2.5-0.6-5.4-1.2-8.7-1.6c-3.3-0.4-6.9-0.7-10.9-0.8c-4-0.1-8.3,0.1-12.9,0.5c-4.6,0.4-9.5,1.1-14.7,2.1
		c-5.2,1-10.6,2.4-16.2,4.1C52.8,10.1,47,12.2,41,14.8c-6,2.6-12.2,5.7-18.5,9.2C16.1,27.6,9.6,31.7,3,36.4L3,36.2z"/>
	<path class="st0" d="M201.8,25.7c-0.1-0.4-0.6-0.4-1.5,0.2c-0.8,0.6-2.1,1.5-3.7,2.9c-0.2,0.2-0.3,0.2-0.5,0.1c0,0-0.1-0.1-0.1-0.2
		c0-0.1,0-0.2,0.1-0.3c0.6-0.5,1.3-1.1,1.9-1.6c0.7-0.6,1.3-1,1.9-1.5c0.6-0.4,1.2-0.7,1.7-0.9c0.5-0.2,0.9-0.2,1.3,0
		c0.4,0.2,0.5,0.5,0.5,0.8c0,0.4-0.1,0.8-0.4,1.3c-0.2,0.5-0.6,1-1,1.6c-0.4,0.6-0.8,1.1-1.3,1.7c-0.4,0.6-0.9,1.2-1.3,1.7
		c-0.4,0.6-0.7,1.1-0.9,1.6c-0.2,0.5-0.4,0.9-0.4,1.2c0,0.3,0.2,0.6,0.6,0.8c0.4,0.2,1,0.1,1.6-0.4c0.6-0.5,1.3-1.1,2-1.9
		c0.7-0.8,1.4-1.7,2.2-2.6c0.7-1,1.5-1.9,2.1-2.7s1.3-1.5,1.9-2.1c0.6-0.5,1-0.8,1.4-0.8c0.3,0,0.5,0.2,0.6,0.5
		c0.1,0.3,0.1,0.7,0.1,1.2c0,0.5-0.1,1-0.2,1.6c-0.1,0.6-0.2,1.1-0.3,1.7c-0.1,0.6-0.3,1-0.4,1.5s-0.2,0.7-0.2,0.9
		c0.4-0.3,0.8-0.6,1.2-1s0.8-0.7,1.3-1c0.5-0.4,1-0.8,1.5-1.2c0.5-0.4,1.2-1,1.9-1.5c0.2-0.2,0.3-0.2,0.5-0.1c0,0,0.1,0.1,0.1,0.2
		c0,0.1,0,0.2-0.1,0.3c-0.4,0.3-0.7,0.6-1.2,1c-0.4,0.4-0.9,0.8-1.4,1.3c-0.5,0.5-1.1,1-1.8,1.6c-0.7,0.6-1.4,1.2-2.3,1.9
		c-1.6,4.1-3.4,7.7-5.2,10.9c-1.9,3.2-3.8,6-5.7,8.3c-1.9,2.3-3.8,4.3-5.6,5.9c-1.8,1.6-3.5,2.7-5,3.5c-1.5,0.8-2.8,1.3-3.8,1.4
		c-1.1,0.1-1.8-0.1-2.2-0.7c-0.7-1-0.7-2.4,0.1-4.2c0.8-1.7,2.3-3.8,4.6-6.2c2.2-2.4,5.1-5.2,8.7-8.3s7.7-6.5,12.5-10.3
		c0.1-0.4,0.3-0.8,0.5-1.5c0.2-0.6,0.4-1.3,0.6-2c0.2-0.7,0.4-1.3,0.5-2c0.2-0.6,0.2-1.1,0.3-1.5c-0.3,0.3-0.7,0.8-1.2,1.5
		c-0.5,0.7-1.1,1.4-1.8,2.1c-0.7,0.8-1.4,1.5-2.1,2.3c-0.8,0.8-1.5,1.4-2.2,1.9c-0.7,0.5-1.4,0.9-2.1,1c-0.7,0.2-1.2,0-1.7-0.4
		c-0.5-0.5-0.8-1-0.9-1.7c0-0.6,0.1-1.3,0.4-2c0.3-0.7,0.6-1.4,1.1-2c0.5-0.7,0.9-1.3,1.4-1.9c0.5-0.6,0.8-1.1,1.1-1.5
		C201.7,26.1,201.8,25.8,201.8,25.7L201.8,25.7z M182.9,61.9c0.2,0.2,0.6,0.3,1.1,0.2c0.6,0,1.3-0.2,2.2-0.6c0.9-0.3,1.9-0.8,3-1.5
		c1.1-0.6,2.3-1.5,3.5-2.5c1.2-1,2.5-2.2,3.8-3.6c1.3-1.4,2.6-3,3.8-4.8c1.3-1.8,2.4-3.8,3.6-6.1c1.1-2.2,2.2-4.7,3.1-7.5
		c-2.1,2-4.3,3.9-6.4,5.9c-2.1,1.9-4.2,3.8-6.1,5.6c-1.9,1.8-3.7,3.5-5.3,5.1c-1.6,1.6-3,3-4,4.3c-1.1,1.3-1.8,2.4-2.2,3.3
		C182.5,60.8,182.5,61.5,182.9,61.9L182.9,61.9z"/>
	<path class="st1" d="M64.9,70.8c5-13.4,79.4-22.2,96.5-22.7c64.9-1.6,128.8,3.8,180.8,38.1c2.1,1.4,1.2,1.6,3.5,1.8
		c-0.7,0.1-1.3,0.2-1.9-0.2c-50.4-35.4-132-41.4-196.1-37C136.1,51.6,71.2,63,68.2,71.4c-0.2,0.7-1.1,1.2-2,1
		C65.3,72.3,64.7,71.6,64.9,70.8L64.9,70.8z"/>
	<path class="st0" d="M239.8,62c0,2.2-1.1,4.2-3.3,6c-2.2,1.8-4.5,2.7-7,2.7c-0.9,0-1.7-0.2-2.4-0.6c-0.7-0.4-1-0.8-1-1.3
		c0-1.4,0.4-2,1.3-2c0.5,0,0.8,0.2,0.8,0.6c0,0.1-0.1,0.3-0.2,0.4c-0.1,0.2-0.2,0.3-0.2,0.5c0,0.4,0.2,0.7,0.7,1
		c0.5,0.3,1.1,0.5,1.8,0.5c1.7,0,3.3-0.8,4.8-2.2c1.6-1.5,2.3-3,2.3-4.6c0-1.4-0.7-2.6-2.1-3.6c-1.4-1-3.2-1.5-5.3-1.5
		c-3.5,0-7.2,1.1-11.2,3.2c-4.4,2.3-6.6,4.7-6.6,7.1c0,1.9,1.1,3.2,3.4,4.1L228,77c3,1.1,4.5,2.8,4.5,5c0,3.4-1.8,6.1-5.3,8.2
		c-3.5,2.1-8.1,3.1-13.9,3.1c-4.8,0-8.9-0.8-12.2-2.4c-3.4-1.6-5-3.6-5-5.9c0-1.9,1.3-3.3,3.8-4c1.2-0.4,1.8-0.3,1.8,0
		c0,0-0.5,0.4-1.5,1c-1,0.7-1.5,1.5-1.5,2.6c0,2.4,1.4,4.3,4.3,5.7c2.9,1.4,6.7,2.1,11.5,2.1c4.7,0,8.6-0.9,11.8-2.6
		c3.1-1.7,4.7-3.9,4.7-6.4c0-2-1.4-3.5-4.2-4.6l-12-4.7c-2.4-0.9-3.6-2.5-3.6-4.8c0-3.2,2.1-6,6.4-8.6c4.3-2.6,8.9-3.9,13.9-3.9
		c2.7,0,4.7,0.5,6.2,1.4C239,59.2,239.8,60.4,239.8,62L239.8,62z"/>
	<path class="st0" d="M244.2,92.6c0.5,0,1.1-0.3,1.9-0.9c0.8-0.6,1.6-1.2,2.5-2c0.9-0.8,1.9-1.7,2.8-2.6c1-0.9,1.9-1.8,2.9-2.6
		c0.2-0.2,0.4-0.3,0.5-0.2c0,0,0.1,0.1,0.1,0.2c0,0.1,0,0.2-0.1,0.3c-0.5,0.4-1,0.9-1.7,1.6c-0.7,0.6-1.3,1.3-2.1,2
		c-0.7,0.7-1.5,1.4-2.2,2.1c-0.8,0.7-1.5,1.3-2.2,1.9c-0.7,0.6-1.4,1-2.1,1.3c-0.6,0.3-1.2,0.4-1.6,0.3c-0.5-0.1-0.8-0.3-1-0.6
		c-0.2-0.3-0.2-0.7-0.2-1.2c0-0.4,0.2-1,0.4-1.5c0.2-0.6,0.5-1.1,0.7-1.6c0.3-0.5,0.5-1,0.8-1.5c0.3-0.4,0.5-0.8,0.6-1.1
		c-0.2,0.2-0.6,0.5-1,0.9c-0.4,0.4-0.9,0.8-1.4,1.3c-0.5,0.5-1.1,1-1.6,1.5c-0.6,0.5-1.2,1-1.7,1.5c-0.6,0.5-1.1,0.9-1.6,1.2
		c-0.5,0.4-0.9,0.6-1.3,0.7c-0.7,0.3-1.2,0.3-1.6,0.2c-0.4-0.1-0.7-0.4-0.9-0.7c-0.2-0.3-0.4-0.6-0.5-1c-0.1-0.4-0.1-0.7-0.1-1
		c0-0.7,0.3-1.5,0.9-2.5c0.6-1,1.3-1.9,2.1-2.8c0.8-0.9,1.7-1.8,2.7-2.6c1-0.8,1.9-1.4,2.8-1.8c0.8-0.4,1.6-0.6,2.3-0.7
		c0.7-0.1,1.3-0.1,1.8,0c0.5,0.1,0.9,0.4,1.1,0.8c0.3,0.4,0.4,0.9,0.3,1.6c0.1,0.1,0.2,0.1,0.3,0.2c0.1,0.1,0.1,0.2,0.2,0.4
		c0.1,0.2,0.1,0.4,0.1,0.6c0,0.4-0.1,0.9-0.3,1.5c-0.2,0.6-0.5,1.2-0.8,1.8c-0.3,0.6-0.6,1.2-1,1.8c-0.3,0.6-0.6,1.1-0.8,1.5
		c-0.2,0.4-0.3,0.8-0.2,1.1C243.5,92.5,243.8,92.6,244.2,92.6L244.2,92.6z M233.7,92c0.1,0.2,0.5,0.1,1.1-0.2
		c0.6-0.4,1.3-0.8,2.2-1.5c0.8-0.6,1.7-1.3,2.7-2.2c1-0.8,1.9-1.5,2.7-2.2c0.9-0.7,1.6-1.3,2.2-1.8c0.6-0.5,1-0.7,1.2-0.7
		c-0.1-0.7-0.3-1.2-0.7-1.4c-0.4-0.2-0.9-0.2-1.6,0c-0.6,0.2-1.3,0.5-2.1,1.1c-0.8,0.5-1.5,1.1-2.3,1.8c-0.8,0.7-1.5,1.4-2.2,2.1
		c-0.7,0.8-1.3,1.5-1.9,2.1c-0.5,0.7-0.9,1.3-1.2,1.8C233.6,91.4,233.5,91.8,233.7,92L233.7,92z"/>
	<path class="st0" d="M261,78.8c0.4-0.4,1-1.1,1.8-1.9c0.8-0.8,1.8-1.8,2.8-2.8c1.1-1,2.2-2.1,3.4-3.2c1.2-1.1,2.4-2.2,3.6-3.2
		c1.2-1,2.3-1.9,3.4-2.7c1.1-0.8,2-1.3,2.7-1.7c0.3-0.1,0.5-0.2,0.8-0.2c0.3,0,0.5,0,0.6,0.1c0.2,0.1,0.2,0.3,0.2,0.5
		s-0.1,0.5-0.4,0.9c-0.4,0.6-1,1.3-1.9,2.1c-0.9,0.8-1.9,1.7-3,2.7c-1.1,1-2.3,2-3.6,3c-1.3,1-2.5,2-3.7,2.9
		c-1.2,0.9-2.2,1.7-3.2,2.4c-1,0.7-1.7,1.3-2.2,1.6c-1.6,2-2.9,3.8-3.9,5.3c-0.9,1.5-1.6,2.8-2.1,3.8c-0.4,1.1-0.7,1.9-0.7,2.5
		s0.1,1,0.3,1.2c0.3,0.3,0.6,0.4,1.2,0.3c0.5-0.1,1.1-0.3,1.8-0.6c0.7-0.3,1.4-0.7,2.2-1.2c0.8-0.5,1.5-1,2.3-1.5
		c1.8-1.3,3.8-2.8,5.9-4.6c0.2-0.2,0.4-0.3,0.5-0.2c0,0,0.1,0.1,0.1,0.2c0,0.1,0,0.2-0.1,0.3c-0.3,0.3-0.8,0.7-1.5,1.4
		c-0.7,0.7-1.5,1.4-2.4,2.2c-0.9,0.8-1.9,1.6-2.9,2.4c-1,0.8-2,1.5-3,2c-1,0.6-1.9,0.9-2.8,1c-0.9,0.1-1.6-0.1-2.2-0.6
		c-0.4-0.4-0.7-0.8-0.8-1.4c-0.1-0.6-0.1-1.2,0-1.9c0.1-0.7,0.3-1.4,0.6-2.2c0.3-0.8,0.6-1.5,1-2.2c0.4-0.7,0.8-1.4,1.2-2.1
		c0.4-0.7,0.9-1.3,1.3-1.8c-0.8,0.6-1.6,1.2-2.4,1.8c-0.8,0.7-1.6,1.4-2.6,2.3c-0.2,0.2-0.4,0.3-0.5,0.2c0-0.1-0.1-0.1-0.1-0.2
		c0-0.1,0-0.2,0.1-0.3c0.5-0.4,1.2-1,1.9-1.6c0.7-0.7,1.5-1.3,2.3-2c0.8-0.7,1.5-1.3,2.2-1.9C260.1,79.5,260.6,79.1,261,78.8
		L261,78.8z M279.2,64.1c-0.7,0.1-1.5,0.5-2.6,1.2c-1.1,0.7-2.2,1.5-3.4,2.5c-1.2,1-2.4,2.1-3.6,3.2c-1.2,1.2-2.3,2.3-3.2,3.4
		c2.1-1.6,4-3.1,5.7-4.4c0.7-0.6,1.5-1.2,2.2-1.8c0.7-0.6,1.4-1.2,2.1-1.7c0.6-0.5,1.2-1,1.7-1.4C278.6,64.6,279,64.3,279.2,64.1
		L279.2,64.1z"/>
	<path class="st0" d="M285,84.5c0.2-0.2,0.4-0.3,0.5-0.2c0,0,0.1,0.1,0.1,0.2c0,0.1,0,0.2-0.1,0.3c-1.2,1.2-2.2,2.2-3.3,2.9
		c-1,0.8-2,1.4-2.9,2c-0.9,0.5-1.8,1-2.7,1.3c-0.9,0.3-1.7,0.7-2.6,1c-0.4,0.4-0.9,0.8-1.5,1.2c-0.6,0.3-1.2,0.6-1.9,0.7
		c-0.6,0.1-1.3,0.2-1.8,0.2c-0.6,0-1.1-0.2-1.6-0.5c-0.5-0.3-0.8-0.7-1-1.3c-0.2-0.6-0.3-1.3-0.1-2.1c0.1-0.4,0.2-0.9,0.5-1.5
		c0.3-0.6,0.6-1.2,1-1.8c0.4-0.6,0.9-1.3,1.4-1.9c0.5-0.6,1.1-1.2,1.8-1.8c0.6-0.6,1.3-1,2.1-1.5c0.8-0.4,1.5-0.7,2.4-0.9
		c0.3-0.1,0.7-0.1,1.2-0.2c0.5,0,1,0.1,1.4,0.4c0.7,0.3,1.1,0.7,1.3,1.3c0.2,0.5,0.3,1.1,0.1,1.8c-0.1,0.7-0.3,1.3-0.7,2
		c-0.3,0.7-0.7,1.3-1.1,2c-0.4,0.6-0.8,1.2-1.2,1.6c-0.4,0.5-0.7,0.8-0.9,1c1.3-0.5,2.4-1,3.4-1.6c1-0.6,2-1.2,2.8-1.7
		c0.8-0.6,1.5-1.1,2.1-1.6C284.1,85.3,284.6,84.9,285,84.5L285,84.5z M277.4,82c-0.1-0.1-0.2-0.1-0.5-0.2c-0.3-0.1-0.7,0-1.1,0.2
		c-0.5,0.2-1,0.6-1.7,1.3c-0.7,0.6-1.4,1.6-2.2,2.9c-0.4,0.7-0.7,1.3-0.9,1.9c-0.2,0.6-0.3,1.1-0.4,1.6c0,0.5,0,0.8,0.2,1.1
		c0.1,0.3,0.4,0.4,0.7,0.4c0.3,0,0.7-0.2,1.2-0.6c0.5-0.4,1-0.9,1.5-1.5c0.5-0.6,1.1-1.3,1.6-2c0.5-0.7,0.9-1.4,1.3-2.1
		c0.3-0.7,0.6-1.3,0.7-1.8C277.7,82.6,277.6,82.2,277.4,82L277.4,82z M270.4,92.4c-0.6,0-1-0.3-1.3-0.7c-0.2-0.4-0.3-1-0.3-1.6
		c0.1-0.7,0.2-1.4,0.6-2.2c0.3-0.8,0.7-1.6,1.3-2.4c0.5-0.8,1.1-1.5,1.8-2.2c0.7-0.7,1.4-1.2,2.2-1.6c-1,0.5-2,1.2-2.8,2
		c-0.8,0.8-1.5,1.7-2.1,2.6s-1.1,1.8-1.4,2.6c-0.3,0.8-0.6,1.5-0.6,2.1c-0.1,0.6,0,1,0.2,1.3c0.2,0.3,0.4,0.4,0.7,0.5
		c0.3,0.1,0.6,0.1,0.9,0C269.9,92.5,270.1,92.5,270.4,92.4L270.4,92.4z"/>
	<path class="st0" d="M284.3,86c-0.2,0.2-0.4,0.3-0.5,0.2c-0.1-0.1-0.1-0.1-0.1-0.2c0-0.1,0-0.2,0.1-0.3c0.7-0.6,1.4-1.2,2.1-1.8
		c0.7-0.6,1.3-1.1,1.9-1.6c0.6-0.5,1.3-0.8,1.9-1.1c0.7-0.2,1.3-0.3,2-0.2c0.5,0.1,0.7,0.3,0.7,0.7c0,0.4-0.2,0.9-0.6,1.4
		c-0.3,0.6-0.8,1.2-1.4,1.9c-0.6,0.7-1.2,1.4-1.9,2.1c-0.7,0.7-1.3,1.4-2,2.1c-0.7,0.7-1.3,1.3-1.8,1.8c-0.5,0.5-0.9,0.9-1.2,1.2
		c-0.3,0.3-0.3,0.4-0.2,0.3c1.2-0.7,2.5-1.6,3.8-2.5c1.3-0.9,2.5-1.8,3.7-2.8c1.2-0.9,2.4-1.8,3.5-2.6c1.1-0.8,2.1-1.5,3.1-2.1
		c0.9-0.6,1.8-0.9,2.5-1.1c0.7-0.2,1.3-0.1,1.7,0.2c0.6,0.4,0.8,1,0.8,1.6c-0.1,0.7-0.3,1.4-0.7,2.1c-0.4,0.8-0.9,1.5-1.5,2.3
		c-0.6,0.8-1.2,1.5-1.7,2.2c-0.6,0.7-1,1.3-1.4,1.8c-0.4,0.5-0.5,0.8-0.4,1c0.1,0.2,0.3,0.2,0.7,0c0.4-0.2,0.9-0.5,1.5-0.9
		c0.6-0.4,1.3-0.9,2.1-1.5c0.8-0.6,1.6-1.2,2.4-1.9c0.8-0.6,1.6-1.3,2.4-1.9c0.8-0.7,1.5-1.2,2.1-1.8c0.2-0.2,0.4-0.3,0.5-0.2
		c0.1,0,0.1,0.1,0.1,0.2c0,0.1,0,0.2-0.1,0.3c-0.5,0.4-1.1,0.9-1.8,1.6c-0.7,0.6-1.5,1.3-2.3,2c-0.8,0.7-1.6,1.4-2.5,2.1
		c-0.9,0.7-1.7,1.3-2.5,1.9c-0.8,0.6-1.6,1-2.3,1.3c-0.7,0.3-1.3,0.4-1.8,0.3c-0.6-0.1-0.9-0.4-0.9-0.9c0-0.5,0.2-1.1,0.6-1.7
		c0.4-0.7,0.9-1.4,1.5-2.1c0.6-0.8,1.2-1.5,1.7-2.2c0.5-0.7,1-1.3,1.3-1.8s0.4-0.8,0.2-0.9c-0.3-0.2-0.7-0.2-1.2,0
		c-0.5,0.2-1.2,0.4-1.9,0.8c-0.7,0.4-1.5,0.9-2.4,1.4c-0.9,0.6-1.8,1.1-2.6,1.8c-0.9,0.6-1.8,1.2-2.6,1.9c-0.9,0.6-1.7,1.2-2.4,1.7
		c-0.7,0.5-1.4,1-1.9,1.3c-0.5,0.4-0.9,0.6-1.2,0.7c-0.5,0.2-1,0.2-1.3,0c-0.4-0.2-0.5-0.6-0.5-1.1c0.1-0.5,0.3-1.1,0.8-1.7
		c0.5-0.7,1.1-1.4,1.8-2.1c0.7-0.7,1.4-1.5,2.2-2.2c0.8-0.7,1.5-1.4,2.1-2c0.6-0.6,1.1-1.1,1.5-1.6c0.4-0.4,0.5-0.7,0.3-0.8
		c-0.1-0.1-0.3-0.1-0.5-0.1c-0.2,0.1-0.5,0.2-0.8,0.3c-0.3,0.2-0.6,0.4-1,0.6c-0.3,0.2-0.7,0.5-1,0.7
		C286.1,84.4,285.2,85.1,284.3,86L284.3,86z"/>
</g>
</svg>
